<?xml version="1.0" standalone="no"?>
<!DOCTYPE svg PUBLIC "-//W3C//DTD SVG 20010904//EN"
 "http://www.w3.org/TR/2001/REC-SVG-20010904/DTD/svg10.dtd">
<svg version="1.0" xmlns="http://www.w3.org/2000/svg"
 width="700.000000pt" height="700.000000pt" viewBox="0 0 700.000000 700.000000"
 preserveAspectRatio="xMidYMid meet">
<metadata>
Created by potrace 1.11, written by Peter Selinger 2001-2013
</metadata>
<g transform="translate(0.000000,700.000000) scale(0.100000,-0.100000)"
fill="#000000" stroke="none">
<path d="M2127 6123 c-2 -1 -23 -3 -47 -4 -39 -1 -141 -13 -205 -24 -49 -8
-187 -47 -251 -70 -221 -82 -416 -207 -576 -371 -228 -232 -357 -474 -432
-804 -33 -143 -39 -449 -13 -590 2 -14 8 -45 12 -70 33 -213 153 -512 305
-765 158 -262 397 -566 680 -865 109 -115 444 -451 515 -517 33 -30 290 -271
335 -313 51 -49 225 -209 247 -228 13 -10 51 -46 86 -78 66 -62 237 -218 267
-244 26 -22 179 -161 204 -185 12 -11 66 -60 121 -109 55 -49 105 -95 111
-102 8 -11 19 -5 55 27 41 37 144 131 214 194 17 15 48 44 70 64 84 76 492
448 539 491 28 25 82 75 120 111 39 37 85 78 101 93 227 205 684 653 846 831
35 38 73 78 84 90 47 50 247 287 306 365 253 330 416 622 507 910 120 380 115
783 -14 1130 -184 495 -587 854 -1104 985 -177 44 -410 61 -568 41 -26 -3 -65
-9 -87 -11 -32 -5 -100 -19 -180 -39 -91 -23 -243 -83 -360 -143 -150 -76
-379 -250 -472 -359 l-41 -48 -59 61 c-121 128 -296 261 -453 345 -144 76
-399 162 -540 182 -115 16 -315 28 -323 19z m265 -602 c163 -34 312 -96 443
-186 78 -54 69 -46 165 -140 76 -74 162 -195 204 -285 l26 -55 271 -1 271 0
34 70 c55 110 109 184 208 281 137 136 283 224 470 284 179 58 408 66 586 22
95 -24 97 -25 195 -71 300 -140 505 -421 555 -761 12 -80 10 -310 -4 -364 -2
-11 -9 -41 -15 -68 -71 -309 -302 -701 -636 -1078 -174 -196 -481 -511 -701
-719 -100 -94 -466 -435 -499 -465 -86 -77 -169 -151 -192 -173 -16 -15 -71
-65 -123 -112 -51 -47 -106 -97 -121 -112 l-28 -27 -29 27 c-16 15 -69 63
-117 107 -49 44 -101 91 -115 105 -15 14 -49 45 -76 69 -92 82 -206 187 -404
371 -764 710 -1156 1152 -1385 1565 -88 158 -168 375 -190 515 -4 25 -9 54
-11 65 -6 29 -6 249 0 266 3 8 7 33 10 56 3 23 14 74 26 115 89 301 297 532
582 644 64 25 189 60 243 67 80 10 280 3 357 -12z"/>
</g>
</svg>
